<svg width="71" height="74" viewBox="0 0 71 74" fill="none" xmlns="http://www.w3.org/2000/svg">
<path d="M4.43651 10.8218C6.7381 10.8218 7.61426 9.48384 8.1936 6.36893C8.49042 4.75031 8.93072 3.78288 9.8261 3.78288C10.4764 3.78288 10.969 4.44493 10.9715 5.45873C10.9715 6.77791 10.3566 7.56823 8.94994 8.00927L10.2669 10.2959C12.2884 9.59287 13.3411 7.88692 13.3411 5.54605C13.3411 2.74737 11.7687 0.970387 9.86407 0.970387C7.52699 0.970387 6.29731 2.67633 5.92998 5.28163C5.61147 7.46167 5.1899 8.0068 4.34924 8.0068C3.5929 8.0068 3.15506 7.16221 3.15506 5.89484C3.15506 4.18889 4.06623 2.886 5.87574 2.37688L4.38228 0C3.04906 0.528853 2.09992 1.3024 1.53932 2.34087C0.968361 3.40548 0.677951 4.59885 0.695701 5.80703C0.695701 8.91355 2.27644 10.8213 4.43651 10.8213V10.8218ZM0.868271 22.1586V25.2301L13.1656 20.3929V16.3461L0.868271 11.506V14.5854L3.4149 15.5365V21.2074L0.868271 22.1586ZM5.96104 16.4872L10.9863 18.3678L5.96104 20.2508V16.4872ZM0.868271 29.3474H5.61837V35.4001H8.16747V29.3474H10.616V35.9285H13.1651V26.532H0.868271V29.3469V29.3474ZM13.1656 47.3472L13.1764 37.8283H0.879118V47.5243H3.42575V40.6433H5.87426V46.8183H8.4209V40.6433H10.6165V47.3472H13.1656ZM13.1656 49.3175H0.868271V52.1355H5.52321V54.4221C5.52321 55.5641 4.8921 56.2153 3.67869 56.2153C3.09294 56.202 2.50669 56.2257 1.9239 56.2864C1.55806 56.3377 1.20207 56.4442 0.868271 56.6026L0.876653 59.7693H1.14882C1.76366 59.3307 2.57178 59.1886 3.76596 59.1181C5.10214 59.0471 6.04338 58.2735 6.31506 57.2351C6.56158 57.9247 7.0147 58.5217 7.61278 58.9435C8.17585 59.3677 8.85922 59.6016 9.56331 59.6109C11.6366 59.6109 13.1656 58.0629 13.1656 55.4768V49.318V49.3175ZM10.616 55.389C10.616 56.3919 10.1397 56.8823 9.3863 56.8823C8.63291 56.8823 8.06935 56.3919 8.06935 55.389V52.135H10.616V55.389ZM6.35844 66.486C4.74221 66.189 3.77631 65.7475 3.77631 64.8511C3.77631 64.1999 4.44539 63.7066 5.44974 63.7066C6.76669 63.7066 7.55558 64.3223 7.99638 65.7312L10.2792 64.4096C9.5776 62.3874 7.8741 61.3327 5.53701 61.3327C2.74287 61.3327 0.968854 62.9079 0.968854 64.8156C0.968854 67.1565 2.67187 68.3883 5.27274 68.7564C7.44908 69.0726 7.99342 69.4949 7.99342 70.3395C7.99342 71.0972 7.1498 71.5358 5.88511 71.5358C4.1821 71.5358 2.88142 70.6231 2.37258 68.8106L0 70.3039C0.527569 71.6419 1.30019 72.593 2.33708 73.1544C3.40011 73.7262 4.59133 74.0173 5.79784 73.999C8.89916 73.999 10.8038 72.4159 10.8038 70.2516C10.8038 67.9463 9.46815 67.0662 6.35844 66.4855V66.486ZM18.3219 61.5068H12.4373V73.8244H15.2477V69.2487H18.3219C21.0264 69.2487 22.4493 67.3656 22.4493 65.3598C22.4493 63.3539 21.0619 61.5063 18.3219 61.5063V61.5068ZM18.1454 66.6982H15.2477V64.0574H18.1454C19.0596 64.0574 19.6389 64.5369 19.6389 65.379C19.6389 66.2211 19.0596 66.6982 18.1454 66.6982ZM26.4371 61.5068L21.6161 73.8244H24.6794L25.629 71.2709H31.2799L32.2266 73.8244H35.3062L30.4772 61.5068H26.4371ZM26.5787 68.7203L28.4557 63.6898L30.3357 68.7203H26.5787ZM41.749 71.4485C39.7684 71.4485 38.0979 69.9389 38.0979 67.6523C38.0979 65.3657 39.7112 63.8699 41.6809 63.8699C43.384 63.8699 44.6299 64.8728 44.981 66.5788L47.5631 65.418C47.038 63.1235 44.981 61.3302 41.7327 61.3302C40.8896 61.3051 40.0504 61.4506 39.265 61.7579C38.4795 62.0658 37.7646 62.529 37.1626 63.121C36.5606 63.7125 36.0843 64.42 35.7618 65.2004C35.4394 65.9809 35.2781 66.819 35.2875 67.6636C35.2875 71.2881 37.8149 73.997 41.7327 73.997C45.1062 73.997 47.3536 72.1164 48.0744 69.0918L45.4928 68.0534C45.0875 70.111 43.8415 71.449 41.749 71.449V71.4485ZM52.5223 68.8101H58.6874V66.2566H52.5223V64.0574H59.2125V61.5068L49.7118 61.4984V73.816H59.389V71.2625H52.5223V68.8096V68.8101ZM66.5551 66.486C64.9389 66.189 63.973 65.7475 63.973 64.8511C63.973 64.1999 64.6421 63.7066 65.6464 63.7066C66.9634 63.7066 67.7523 64.3223 68.193 65.7312L70.4759 64.4096C69.7743 62.3874 68.0708 61.3327 65.7337 61.3327C62.9395 61.3327 61.1655 62.9079 61.1655 64.8156C61.1655 67.1565 62.8685 68.3883 65.4694 68.7564C67.6457 69.0726 68.1901 69.4949 68.1901 70.3395C68.1901 71.0972 67.3465 71.5358 66.0818 71.5358C64.3788 71.5358 63.0781 70.6231 62.5692 68.8106L60.1967 70.3039C60.7242 71.6419 61.4969 72.593 62.5337 73.1544C63.5968 73.7262 64.788 74.0173 65.9945 73.999C69.0958 73.999 71.0005 72.4159 71.0005 70.2516C71.0005 67.9463 69.6648 67.0662 66.5551 66.4855V66.486Z" fill="#2A1482"/>
</svg>
