<svg width="92" height="88" viewBox="0 0 92 88" fill="none" xmlns="http://www.w3.org/2000/svg">
<path fill-rule="evenodd" clip-rule="evenodd" d="M82.7123 5.50672C82.3452 7.50978 81.7995 8.70691 80.6913 8.70691C79.8863 8.70691 79.2766 7.88073 79.2766 6.63978C79.2766 5.00765 80.0379 4.02634 81.7793 3.48342L80.1457 0.650824C77.6464 1.52421 76.3428 3.63518 76.3428 6.52849C76.3428 9.99169 78.2897 12.1903 80.6475 12.1903C83.5409 12.1903 85.0634 10.0794 85.5181 6.85558C85.9089 4.15785 86.431 3.48342 87.4752 3.48342C88.4116 3.48342 88.9538 4.52881 88.9538 6.09349C88.9538 8.20783 87.8254 9.81634 85.5855 10.4503L87.4314 13.3874C89.0852 12.7366 90.2608 11.7756 90.9546 10.4908C91.6619 9.17456 92.0213 7.69917 91.9988 6.20476C91.9988 2.3605 90.0418 0 87.3673 0C84.5177 0 83.4298 1.65234 82.7123 5.50672ZM76.5584 14.6082H79.7111V22.9037H82.4293V15.2624H85.5855V22.9037H88.617V14.389H91.7731V26.3871H76.5483L76.5584 14.6082ZM84.6492 31.6343C87.1922 32.1334 88.8461 33.6812 88.8461 36.271C88.8461 38.7091 86.98 40.7999 84.154 40.7999C81.3279 40.7999 79.4787 38.7968 79.4787 36.3587C79.4787 34.2444 80.7183 32.6999 82.8269 32.2649L81.392 29.0648C78.5558 29.719 76.3395 32.2649 76.3395 36.2913C76.3076 37.3363 76.4871 38.3771 76.8673 39.3509C77.2474 40.3247 77.8203 41.2115 78.5515 41.9581C79.2827 42.7046 80.1572 43.2954 81.1223 43.695C82.0874 44.0946 83.1232 44.2947 84.1675 44.2833C88.6473 44.2833 91.9955 41.1472 91.9955 36.2913C91.9955 32.1132 89.6713 29.3244 85.9325 28.4342L84.6492 31.6343ZM76.5587 55.2327V50.225L91.7835 44.2394V48.05L88.6274 49.2235V56.2241L91.7835 57.4009V61.2115L76.5587 55.2327ZM85.4746 50.4003L79.2567 52.7305L85.4746 55.0607V50.4003ZM91.7835 72.5858V69.1023H86.1281V65.2918C86.1281 61.9399 83.8006 60.1762 81.3215 60.1762C78.7548 60.1762 76.5587 61.896 76.5587 65.2918V72.5858H91.7835ZM81.3451 63.6597C82.3859 63.6597 82.9753 64.3779 82.9753 65.511V69.1023H79.7114V65.511C79.7114 64.3779 80.3042 63.6597 81.3451 63.6597ZM4.67862 76.6258C4.67862 77.7386 5.87437 78.2815 7.87516 78.649C11.7218 79.3673 13.3756 80.4565 13.3756 83.3094C13.3756 85.9869 11.0178 87.9461 7.17793 87.9461C5.68441 87.9662 4.21018 87.6065 2.89339 86.9007C1.61005 86.2027 0.653456 85.0292 0 83.3734L2.93718 81.5221C3.56705 83.7646 5.17713 84.8943 7.2857 84.8943C8.85198 84.8943 9.89616 84.348 9.89616 83.4139C9.89616 82.3685 9.22249 81.8459 6.52783 81.4547C3.31107 80.9961 1.20252 79.4718 1.20252 76.5785C1.20252 74.218 3.39864 72.2656 6.85455 72.2656C9.74794 72.2656 11.8565 73.574 12.7256 76.0761L9.89953 77.7082C9.35723 75.9682 8.37705 75.2061 6.74678 75.2061C5.51397 75.2128 4.67862 75.8232 4.67862 76.6258ZM20.2128 72.4914H25.2249L31.207 87.7302H27.4008L26.2252 84.5739H19.2225L18.0503 87.7302H14.2441L20.2128 72.4914ZM25.043 81.4175L22.7155 75.1892L20.3879 81.4175H25.043ZM44.4248 75.6478V72.4914H32.7939V87.7302H36.2701V81.8525H43.7511V78.6827H36.2902V75.6478H44.4248ZM58.5315 72.4914V75.6478H50.2488V78.3691H57.8983V81.5153H50.2656V84.5503H58.7673V87.7066H46.7828V72.4914H58.5315ZM69.5791 86.4252C69.6443 86.8771 69.776 87.3169 69.9698 87.7302L73.8872 87.7201V87.3829C73.3415 86.6208 73.1697 85.6193 73.0821 84.1389C72.9945 82.4832 72.038 81.3197 70.7546 80.9825C71.6058 80.6741 72.3418 80.1115 72.8632 79.3707C73.3891 78.6736 73.6783 77.8263 73.6884 76.9528C73.6884 74.3832 71.7752 72.4914 68.5787 72.4914H60.9696V87.7302H64.4491V81.9605H67.2751C68.6898 81.9605 69.4915 82.7462 69.4915 84.2468C69.4768 84.974 69.5061 85.7015 69.5791 86.4252ZM70.3201 77.1855C70.3201 78.1196 69.7104 78.8176 68.4709 78.8176H64.4491V75.6613H68.4709C69.7104 75.6613 70.3201 76.2514 70.3201 77.1855ZM80.6913 83.3194C81.7995 83.3194 82.3452 82.1223 82.7123 80.1193C83.4298 76.2649 84.5177 74.6126 87.3674 74.6126C90.0418 74.6126 91.9988 76.9731 91.9988 80.8173C92.0206 82.3127 91.6612 83.789 90.9546 85.1067C90.2608 86.3881 89.0852 87.3458 87.4314 88L85.5855 85.0629C87.8254 84.4289 88.9538 82.8204 88.9538 80.706C88.9538 79.138 88.4116 78.096 87.4752 78.096C86.431 78.096 85.9089 78.7704 85.5181 81.4681C85.0634 84.6919 83.5409 86.8029 80.6476 86.8029C78.2897 86.8029 76.3428 84.6042 76.3428 81.141C76.3428 78.2477 77.6464 76.1334 80.1457 75.2634L81.7793 78.096C80.0379 78.6389 79.2766 79.6202 79.2766 81.2523C79.2766 82.4933 79.8863 83.3194 80.6913 83.3194Z" fill="#2A1482"/>
</svg>
